<svg id="globe-12150" xmlns="http://www.w3.org/2000/svg" width="19.32" height="19.32" viewBox="0 0 19.32 19.32">
  <path id="Path_4228" data-name="Path 4228" d="M66.6,25.8a1.159,1.159,0,0,1-.311.1c-.1.032-.213.11-.213.219a.219.219,0,0,0,.141.187.642.642,0,0,0,.244.037l.431.009a.46.46,0,0,0,.217-.031c.14-.071.169-.255.18-.412a1.384,1.384,0,0,0-.014-.425c-.047-.194-.219-.412-.393-.221C66.745,25.417,66.8,25.673,66.6,25.8Z" transform="translate(-61.032 -23.266)" fill="#878787"/>
  <path id="Path_4229" data-name="Path 4229" d="M161.7,196.734a.206.206,0,0,0-.063.059.158.158,0,0,0,.015.152.648.648,0,0,0,.65.229.512.512,0,0,0,.2-.051.528.528,0,0,0,.156-.152,2.583,2.583,0,0,0,.51-1.545.123.123,0,0,0-.032-.1.119.119,0,0,0-.107-.006,1.015,1.015,0,0,0-.633.583A2.247,2.247,0,0,1,161.7,196.734Z" transform="translate(-149.272 -180.391)" fill="#878787"/>
  <path id="Path_4230" data-name="Path 4230" d="M13.623,163.214a9.257,9.257,0,0,1-4.033-5.446h0c.949.457,1.355,1.244,2.345,1.6a2.9,2.9,0,0,1,1.36.787,1.868,1.868,0,0,1,.246,1.633c-.149.551.392.942.082,1.421Z" transform="translate(-8.858 -145.715)" fill="#878787"/>
  <path id="Path_4231" data-name="Path 4231" d="M61.511,5.5q-.421,0-.833.037h0c-.312.33-1.106.457-1.37,1.018a.594.594,0,0,0-.079.281.386.386,0,0,0,.23.3.965.965,0,0,0,.39.074,1.318,1.318,0,0,0,.306-.018c.159-.032.228-.163.339-.282a5.406,5.406,0,0,1,.39-.656c.248-.3.114-.124.687-.119v.21a3.785,3.785,0,0,0-.5.936,1.294,1.294,0,0,1-.245.594c-.161.181-.872.025-1.11.067-.487.087-.544.333-1.025.22.028.675.005.442-.24,1.071a3.78,3.78,0,0,0-1.237.265c-.145.072-.063.635-.1.791a.415.415,0,0,0,.156.412.821.821,0,0,0,.431.157,1.665,1.665,0,0,0,1.081-.255,6.083,6.083,0,0,1,.606-.423c.222-.108.773-.187.943-.008.188.2.116.893.381.961.211.054.205-.4.314-.587s.257-.41.473-.395a.487.487,0,0,1,.268.132c.245.205.142.819.461.807a1.541,1.541,0,0,0,.692-.477c.136.156-.269.9-.073.967s1.285-.352,1.419-.193a.3.3,0,0,1,.08.15c.016.121-.094.22-.2.281-.393.228-.679.327-1.089.523-1.707.817-2.334-.828-5.009-.913-.842.178-.693.526-1.16.88a1.892,1.892,0,0,0-.6.8,2.22,2.22,0,0,0,.207,1.937,2.309,2.309,0,0,0,.884,1.046,2.768,2.768,0,0,0,.7.232l1.083.255a.79.79,0,0,1,.7.585,5.744,5.744,0,0,1,.369.993c.068.289.092.589.176.874.174.586.592,1.766.782,2.347a2.243,2.243,0,0,0,.155.426.841.841,0,0,0,.409.351,1.259,1.259,0,0,0,1.014-.076c.314-.152.577-1.085.829-1.326a5.093,5.093,0,0,0,1.7-2.626A1.8,1.8,0,0,1,65.5,17.4a2.318,2.318,0,0,1,.6-.466,1.666,1.666,0,0,0,.569-.736.736.736,0,0,0,.05-.464c-.1-.345-.521-.451-.836-.622.629-.347,1.464-.536,2.093-.883a1.729,1.729,0,0,0,.421-.29.287.287,0,0,0,.1-.2.337.337,0,0,0-.049-.138c-.153-.288-.294-.283-.464-.562v0a3.354,3.354,0,0,0,.428,0c.378-.026.817-.087,1.083.184a1.487,1.487,0,0,1,.237.972,1.819,1.819,0,0,0,.445,1.108c.277.3.1.761.5.669h0A9.248,9.248,0,0,0,61.511,5.5Zm2.374,5.211c-.234-.012-.753-.2-.964-.095a2.088,2.088,0,0,0,.236-.279,1.877,1.877,0,0,1,.472-.6.989.989,0,0,1,.866-.05.628.628,0,0,1,.444.418.529.529,0,0,1-.358.543A1.653,1.653,0,0,1,63.885,10.71Z" transform="translate(-51.851 -5.079)" fill="#878787"/>
  <path id="Path_4232" data-name="Path 4232" d="M9.66,19.32A9.661,9.661,0,0,1,8.79.039C9.077.013,9.37,0,9.66,0a9.671,9.671,0,0,1,9.66,9.66,9.791,9.791,0,0,1-.084,1.279A9.682,9.682,0,0,1,9.66,19.32ZM9.66.84c-.265,0-.533.012-.8.035A8.82,8.82,0,1,0,18.4,10.829,8.968,8.968,0,0,0,18.48,9.66,8.83,8.83,0,0,0,9.66.84Z" fill="#878787"/>
</svg>
